<?xml version="1.0" standalone="no"?>
<!DOCTYPE svg PUBLIC "-//W3C//DTD SVG 20010904//EN"
 "http://www.w3.org/TR/2001/REC-SVG-20010904/DTD/svg10.dtd">
<svg version="1.0" xmlns="http://www.w3.org/2000/svg"
 width="1080.000000pt" height="1080.000000pt" viewBox="0 0 1080.000000 1080.000000"
 preserveAspectRatio="xMidYMid meet">
<metadata>
Created by potrace 1.11, written by Peter Selinger 2001-2013
</metadata>
<g transform="translate(0.000000,1080.000000) scale(0.100000,-0.100000)"
fill="#000000" stroke="none">
<path d="M5227 10444 c-1 -1 -60 -5 -131 -9 -72 -3 -144 -8 -160 -10 -17 -2
-58 -6 -91 -9 -33 -4 -71 -8 -85 -11 -14 -2 -47 -7 -74 -10 -27 -3 -85 -12
-130 -20 -44 -8 -94 -17 -111 -20 -139 -24 -420 -98 -605 -158 -111 -37 -355
-129 -386 -146 -11 -5 -62 -29 -114 -51 -109 -48 -335 -164 -429 -221 -34 -22
-65 -39 -68 -39 -12 0 -313 -204 -428 -290 -302 -228 -619 -524 -811 -760 -16
-19 -31 -37 -34 -40 -32 -28 -235 -300 -315 -420 -17 -25 -32 -47 -35 -50 -3
-3 -10 -14 -17 -25 -7 -11 -38 -63 -70 -115 -32 -52 -63 -104 -69 -115 -6 -11
-28 -51 -50 -90 -68 -121 -206 -411 -227 -476 -6 -22 -15 -39 -19 -39 -5 0 -8
-8 -8 -18 0 -10 -8 -36 -19 -58 -22 -46 -114 -314 -137 -399 -26 -97 -56 -209
-60 -225 -12 -50 -23 -98 -28 -120 -2 -14 -10 -50 -16 -80 -11 -59 -11 -60
-34 -195 -20 -121 -24 -149 -31 -225 -4 -36 -9 -76 -11 -90 -18 -107 -24 -649
-10 -825 11 -132 15 -175 21 -225 3 -25 8 -61 10 -80 11 -89 27 -181 86 -470
53 -261 175 -633 311 -945 145 -333 412 -777 632 -1050 76 -95 181 -220 226
-270 70 -78 329 -333 405 -400 88 -78 293 -243 316 -255 9 -6 23 -16 31 -23 7
-7 36 -28 63 -47 28 -19 52 -37 53 -42 2 -4 8 -8 13 -8 5 0 31 -15 57 -34 58
-40 188 -122 257 -161 28 -16 68 -39 90 -51 145 -83 448 -225 630 -293 33 -13
69 -27 80 -31 29 -13 203 -71 223 -75 9 -2 37 -10 62 -18 97 -33 427 -111 555
-133 17 -2 55 -9 85 -14 30 -5 79 -12 109 -15 30 -4 61 -8 70 -10 9 -1 52 -6
96 -10 44 -4 91 -8 105 -10 49 -8 307 -18 425 -17 239 2 481 19 715 53 366 52
887 197 1185 329 11 5 38 16 60 25 22 9 53 21 70 28 79 32 383 188 484 249 63
37 116 68 118 68 5 0 236 153 243 160 3 3 37 28 75 55 79 55 280 214 346 273
24 21 71 63 104 92 79 70 283 276 365 369 36 41 70 79 75 85 90 98 365 472
365 496 0 4 4 10 9 12 15 5 132 207 217 376 94 185 164 358 223 547 22 72 49
157 61 190 22 65 106 354 114 395 2 14 16 75 29 135 14 61 28 128 31 150 4 22
11 65 16 95 12 66 27 177 36 251 3 30 7 70 10 89 23 209 23 793 -1 941 -2 13
-6 51 -9 84 -6 62 -7 68 -26 195 -90 597 -285 1179 -568 1695 -65 118 -145
250 -154 253 -4 2 -8 8 -8 13 0 9 -123 198 -155 237 -7 9 -49 65 -93 123 -86
114 -92 122 -197 243 -109 127 -353 376 -439 448 -22 18 -47 41 -55 51 -9 9
-18 17 -22 17 -4 0 -25 17 -46 38 -46 42 -224 182 -298 233 -27 19 -52 37 -55
40 -8 9 -269 179 -275 179 -3 0 -24 12 -48 27 -23 15 -51 33 -62 39 -278 155
-513 264 -790 364 -142 51 -197 69 -390 125 -43 13 -199 51 -245 60 -8 2 -49
10 -90 18 -103 22 -121 25 -235 43 -112 18 -121 19 -220 28 -38 4 -86 9 -105
11 -100 12 -553 27 -563 19z"/>
</g>
</svg>
